<svg xmlns="http://www.w3.org/2000/svg" width="720" height="534" viewBox="0 0 720 534" version="1.1">
	<path d="M 13.463 21.249 C 12.664 23.353, 13.448 515.517, 14.250 515.250 C 14.662 515.112, 170.701 515, 361.002 515 L 707.004 515 706.752 267.750 L 706.500 20.500 360.219 20.249 C 83.719 20.048, 13.843 20.249, 13.463 21.249 M 15 268 L 15 514 360 514 L 705 514 705 268 L 705 22 360 22 L 15 22 15 268 M 178.500 210.534 C 161.485 213.251, 147.267 219.923, 148.189 224.759 C 148.753 227.718, 152.559 227.428, 154.819 224.254 C 156.302 222.172, 158.976 220.677, 164.677 218.742 C 175.486 215.072, 177.519 214.914, 177.429 217.750 C 177.389 218.988, 177.277 227.548, 177.179 236.774 L 177 253.548 170.863 258.017 C 162.683 263.974, 155.588 272.090, 151.740 279.889 C 149.163 285.114, 148.589 287.484, 148.594 292.889 C 148.613 313.107, 171.737 330.024, 194.109 326.188 C 208.330 323.749, 220.629 314.595, 226.957 301.740 C 230.103 295.349, 230.255 294.548, 229.742 287.065 C 228.681 271.580, 221.111 261.268, 200.087 246.664 C 194.360 242.686, 189.187 238.659, 188.592 237.715 C 186.795 234.866, 188.945 232.869, 200.162 226.970 C 214.985 219.176, 216 218.423, 216 215.217 C 216 210.648, 213.014 209.582, 199.500 209.325 C 192.706 209.196, 183.596 209.720, 178.500 210.534 M 188.250 213.686 L 184 214.115 184 221.973 L 184 229.830 195.750 223.791 C 208.910 217.027, 209.820 216.403, 208.450 215.089 C 207.309 213.995, 194.205 213.085, 188.250 213.686 M 420 218.964 C 418.777 219.748, 418.436 223.347, 418.155 238.463 L 417.809 257 404.655 257.007 C 397.420 257.011, 388.399 257.307, 384.609 257.665 L 377.718 258.316 378.109 238.908 L 378.500 219.500 375.500 219.500 L 372.500 219.500 371.885 235.500 C 371.547 244.300, 371.210 253.135, 371.135 255.133 C 371.010 258.498, 370.597 258.963, 365.524 261.444 C 359.245 264.516, 356.018 268.443, 355.286 273.905 C 354.857 277.102, 355.244 278.242, 357.688 280.976 C 359.969 283.529, 361.450 284.265, 364.517 284.368 C 367.512 284.469, 368.517 284.088, 368.791 282.747 C 368.998 281.728, 368.384 280.722, 367.324 280.345 C 360.956 278.079, 360.195 272.439, 365.571 267.368 C 367.535 265.516, 369.581 264, 370.117 264 C 370.742 264, 370.840 273.661, 370.390 291 L 369.689 318 372.286 318 C 373.714 318, 375.160 317.551, 375.499 317.002 C 375.838 316.453, 376.461 304.388, 376.882 290.191 C 377.303 275.994, 377.979 263.843, 378.383 263.189 C 378.909 262.337, 384.537 262, 398.216 262 L 417.313 262 416.621 289.348 C 416.027 312.793, 416.138 316.870, 417.400 317.917 C 418.498 318.829, 419.396 318.858, 420.936 318.034 C 422.806 317.034, 423 316.007, 423 307.125 C 423 301.733, 423.296 289.148, 423.658 279.160 C 424.253 262.740, 424.484 261, 426.076 261 C 428.909 261, 431 259.893, 431 258.393 C 431 257.627, 430.212 256.948, 429.250 256.885 C 428.288 256.821, 426.825 256.709, 426 256.635 C 424.724 256.520, 424.500 253.665, 424.500 237.521 C 424.500 221.436, 424.271 218.500, 423 218.272 C 422.175 218.124, 420.825 218.435, 420 218.964 M 279.191 230.025 C 276.837 231.460, 274.865 234.182, 272.365 239.447 C 269.365 245.764, 268.766 248.240, 268.284 256.307 L 267.720 265.763 264.326 267.381 C 262.459 268.272, 259.485 268.998, 257.716 268.996 C 253.498 268.991, 248.241 265.722, 247.828 262.845 C 247.647 261.592, 246.308 259.900, 244.852 259.086 C 242.474 257.755, 241.802 257.786, 238.250 259.387 C 230.675 262.803, 226.262 269.072, 228.734 272.905 C 230.414 275.511, 237.219 274.835, 240.955 271.691 L 244.105 269.041 247.991 271.612 C 251.338 273.828, 252.681 274.121, 257.688 273.732 C 260.885 273.484, 264.512 272.940, 265.750 272.524 C 267.885 271.806, 268 272.024, 268 276.776 C 268 280.409, 268.432 281.952, 269.572 282.389 C 272.270 283.424, 275 281.199, 275 277.965 C 275 274.651, 275.615 274.394, 278.441 276.532 C 281.507 278.851, 294.013 278.480, 300.028 275.892 C 304.478 273.978, 305.072 273.929, 306.496 275.353 C 308.655 277.512, 314.100 278.375, 320.836 277.624 C 328.372 276.785, 343 269.741, 343 266.952 C 343 264.141, 339.979 264.475, 334.111 267.934 C 328.611 271.177, 323.050 272.986, 318.553 272.994 L 315.606 273 319.857 269.874 C 323.255 267.375, 324.047 266.221, 323.804 264.124 C 323.546 261.895, 322.951 261.454, 319.848 261.195 C 315.223 260.810, 310.557 262.760, 303.679 267.953 C 296.324 273.506, 289.142 275.090, 282.619 272.599 C 278.197 270.910, 276.272 268, 279.577 268 C 281.706 268, 287 262.584, 287 260.406 C 287 259.444, 286.329 257.916, 285.509 257.010 C 284.176 255.537, 284.293 255.001, 286.618 251.932 C 295.477 240.235, 295.033 227.993, 285.750 228.004 C 283.962 228.006, 281.011 228.915, 279.191 230.025 M 282.072 234.750 C 279.561 236.795, 275 248.693, 275 253.200 C 275 256.257, 275.034 256.279, 277.021 254.481 C 282.449 249.569, 287.797 238.240, 286.403 234.607 C 285.615 232.554, 284.734 232.583, 282.072 234.750 M 184 268.342 C 184 290.036, 183.779 293.871, 182.500 294.362 C 181.675 294.678, 180.325 294.678, 179.500 294.362 C 178.249 293.881, 178 290.987, 178 276.893 C 178 266.704, 177.617 260, 177.035 260 C 175.881 260, 170.103 264.962, 164.809 270.500 C 162.706 272.700, 159.583 277.299, 157.870 280.720 C 155.196 286.060, 154.815 287.757, 155.177 292.720 C 155.983 303.747, 163.303 313.468, 174.825 318.811 C 179.523 320.989, 181.963 321.447, 189 321.471 C 196.445 321.496, 198.216 321.137, 203.268 318.577 C 209.787 315.274, 218.349 306.802, 220.590 301.438 C 225.711 289.183, 223.073 276.175, 213.290 265.438 C 210.259 262.111, 201.402 255.116, 190.750 247.638 L 184 242.899 184 268.342 M 509.052 256.816 C 506.038 259.332, 505.742 260.022, 506.273 263.295 C 506.791 266.488, 506.515 267.209, 504.123 268.913 C 498.169 273.152, 491.716 272.444, 486.478 266.977 C 484.909 265.340, 483.018 264, 482.276 264 C 481.533 264, 478.924 266.059, 476.478 268.576 C 470.919 274.296, 468.625 274.204, 468.193 268.241 C 467.917 264.443, 467.619 264, 465.336 264 C 463.804 264, 461.998 265.004, 460.806 266.520 C 455.281 273.543, 443.536 274.137, 441.142 267.515 C 439.726 263.600, 436.013 261.923, 431.452 263.140 C 428.758 263.858, 428.280 264.560, 427.331 269.195 C 425.587 277.707, 428.374 282.240, 434.250 280.449 C 435.488 280.072, 437.329 279.034, 438.342 278.143 C 439.727 276.926, 441.754 276.604, 446.503 276.848 C 451.144 277.087, 453.991 276.655, 457.229 275.223 L 461.638 273.273 463.743 275.636 C 467.156 279.467, 473.290 278.674, 478.757 273.695 L 481.013 271.639 485.257 274.030 C 491.304 277.436, 497.968 277.266, 505.381 273.516 C 510.045 271.156, 511.298 270.864, 511.986 271.978 C 512.566 272.916, 511.910 274.215, 509.918 276.077 C 505.548 280.159, 506.359 286, 511.296 286 C 514.305 286, 518.814 282.862, 520.033 279.920 C 520.925 277.766, 522.366 276.880, 527.163 275.534 C 532.771 273.961, 533.298 273.959, 535.013 275.512 C 538.081 278.288, 547.687 278.595, 555.645 276.171 C 562.770 274.001, 572 268.820, 572 266.991 C 572 264.430, 568.328 264.954, 561.439 268.498 C 556.557 271.010, 552.294 272.435, 548.788 272.726 L 543.500 273.167 546.500 271.227 C 554.917 265.783, 554.860 261.452, 546.373 261.564 C 542.667 261.613, 540.315 262.392, 536.549 264.818 C 533.826 266.572, 529.133 268.929, 526.121 270.056 L 520.645 272.105 516.865 267.802 C 514.786 265.436, 513.066 262.765, 513.043 261.867 C 512.992 259.936, 516.226 258.895, 519.955 259.641 C 521.685 259.987, 523.071 259.619, 523.928 258.586 C 526.166 255.890, 523.555 254, 517.590 254 C 513.391 254, 511.793 254.527, 509.052 256.816 M 277.892 261.942 C 276.042 263.482, 275.869 263.941, 277.128 263.967 C 278.841 264.002, 281.642 261.308, 280.784 260.451 C 280.509 260.175, 279.207 260.846, 277.892 261.942 M 236.766 265.917 C 234.971 267.522, 233.800 269.133, 234.164 269.497 C 235.054 270.387, 239.833 267.180, 241.076 264.858 C 242.585 262.038, 240.548 262.539, 236.766 265.917 M 313.892 266.942 C 312.576 268.037, 311.976 268.948, 312.559 268.967 C 314.109 269.015, 317.600 266.267, 316.890 265.557 C 316.556 265.223, 315.207 265.846, 313.892 266.942 M 541.892 266.889 C 540.576 267.955, 539.850 269.179, 540.278 269.608 C 540.706 270.038, 542.031 269.414, 543.222 268.222 C 546.035 265.409, 544.999 264.370, 541.892 266.889 M 432 274 C 432 275.111, 432.667 276, 433.500 276 C 434.333 276, 435 275.111, 435 274 C 435 272.889, 434.333 272, 433.500 272 C 432.667 272, 432 272.889, 432 274 M 512.981 279.523 C 511.924 280.796, 511.986 280.943, 513.359 280.416 C 514.261 280.069, 515 279.384, 515 278.893 C 515 277.607, 514.421 277.788, 512.981 279.523" stroke="none" fill="black" fill-rule="evenodd"/>
</svg>